<?xml version="1.0" encoding="UTF-8"?> <svg xmlns="http://www.w3.org/2000/svg" xmlns:xlink="http://www.w3.org/1999/xlink" xmlns:xodm="http://www.corel.com/coreldraw/odm/2003" xml:space="preserve" width="34.1375mm" height="19.2628mm" version="1.1" style="shape-rendering:geometricPrecision; text-rendering:geometricPrecision; image-rendering:optimizeQuality; fill-rule:evenodd; clip-rule:evenodd" viewBox="0 0 4094.44 2310.38"> <defs> <style type="text/css"> .str0 {stroke:#FEFEFE;stroke-width:23.99;stroke-miterlimit:22.9256} .fil0 {fill:#FEFEFE;fill-rule:nonzero} </style> </defs> <g id="Слой_x0020_1"> <metadata id="CorelCorpID_0Corel-Layer"></metadata> <path class="fil0 str0" d="M2672.03 858.01l0 -588.82c0,-55.34 0,-117.25 -27.67,-150.4 -27.67,-33.15 -83.01,-44.13 -128.1,-49.62 -45.09,-5.48 -79.92,-5.48 -97.33,-5.48 -17.4,0 -17.4,0 -17.4,0l0 -51.53 218.39 0 218.4 0 218.39 0 218.4 0c34.21,0.23 68.43,0.47 103.96,2.12 35.55,1.64 72.41,4.73 125.07,12.1 52.68,7.38 121.15,19.07 187.71,41.07 16.9,5.59 33.67,11.84 50.21,18.88 48.61,20.7 95.23,48.28 137.13,86 56.14,50.55 103.81,119.36 137.26,186.61 33.46,67.25 52.7,132.97 60.99,196.71 8.28,63.75 5.59,125.55 -2.52,175.56 -8.11,49.99 -21.65,88.18 -28.41,107.29 -6.76,19.09 -6.76,19.09 -6.76,19.09l-293.85 0c6.72,-43.96 13.42,-87.9 16.58,-141.23 3.14,-53.31 2.71,-116.01 -3.19,-176.08 -5.91,-60.09 -17.3,-117.56 -32.28,-165.25 -14.97,-47.7 -33.55,-85.63 -62.3,-124.86 -28.76,-39.23 -67.69,-79.77 -114.29,-109.72 -46.6,-29.96 -100.86,-49.32 -148.1,-60.35 -47.24,-11.02 -87.48,-13.72 -127.72,-16.41 0,0 0,0 -17.42,0 -17.42,0 -52.23,0 -97.32,5.48 -45.09,5.49 -100.43,16.47 -128.1,49.62 -27.67,33.15 -27.67,88.5 -27.67,143.84l0 297.69 0 297.69 -332.04 0zm-1126.13 -0.17l0 -595.38c0,-55.34 0,-110.69 -27.67,-143.84 -27.67,-33.15 -83.01,-44.13 -128.1,-49.62 -45.09,-5.48 -79.92,-5.48 -97.33,-5.48 -17.4,0 -17.4,0 -17.4,0l0 -51.53 873.57 0 -0.26 25.76 -0.26 25.76c0,0 0,0 -17.42,0 -17.4,0 -52.23,0 -97.32,5.48 -45.09,5.49 -100.43,16.47 -128.1,49.62 -13.83,16.58 -20.75,38.7 -24.22,63.6 -3.45,24.89 -3.45,52.57 -3.45,80.24l0 297.69 0 297.69 -332.04 0zm-1262.56 411.15l0 -227.26 32.28 0 0 93.64 125.68 0 0 -93.64 32.26 0 0 227.26 -32.26 0 0 -106.96 -125.68 0 0 106.96 -32.28 0zm306.89 -110.55c0,-36.35 8.92,-64.85 26.73,-85.43 17.81,-20.58 40.78,-30.85 68.95,-30.85 18.46,0 35.06,4.85 49.89,14.5 14.78,9.66 26.09,23.14 33.85,40.46 7.76,17.26 11.67,36.87 11.67,58.78 0,22.21 -4.09,42.12 -12.27,59.65 -8.19,17.57 -19.77,30.85 -34.73,39.83 -15.03,9.04 -31.21,13.54 -48.55,13.54 -18.83,0 -35.61,-5.01 -50.45,-14.97 -14.79,-9.96 -26.04,-23.54 -33.67,-40.8 -7.62,-17.21 -11.43,-35.44 -11.43,-54.7zm27.33 0.52c0,26.4 6.46,47.18 19.39,62.36 12.93,15.17 29.15,22.78 48.68,22.78 19.9,0 36.22,-7.66 49.1,-22.98 12.82,-15.32 19.24,-37.07 19.24,-65.27 0,-17.82 -2.73,-33.39 -8.23,-46.68 -5.48,-13.28 -13.53,-23.59 -24.08,-30.9 -10.6,-7.3 -22.45,-10.97 -35.61,-10.97 -18.7,0 -34.78,7.04 -48.26,21.15 -13.49,14.09 -20.23,37.59 -20.23,70.52zm439.69 -117.24l32.2 0 0 129.04c0,22.48 -2.77,40.31 -8.25,53.53 -5.53,13.16 -15.47,23.93 -29.82,32.19 -14.4,8.28 -33.22,12.44 -56.61,12.44 -22.64,0 -41.24,-3.6 -55.64,-10.83 -14.45,-7.22 -24.73,-17.63 -30.9,-31.3 -6.15,-13.69 -9.26,-32.36 -9.26,-56.02l0 -129.04 32.19 0 0 129c0,19.39 1.98,33.75 5.88,42.91 3.9,9.2 10.57,16.32 20.11,21.27 9.49,5 21.12,7.5 34.85,7.5 23.5,0 40.28,-4.94 50.27,-14.78 10,-9.88 14.97,-28.81 14.97,-56.9l0 -129zm149.85 152.9l29.79 -2.46c1.39,11.06 4.68,20.11 9.87,27.23 5.19,7.05 13.22,12.79 24.1,17.19 10.88,4.35 23.16,6.55 36.77,6.55 12.1,0 22.76,-1.63 32.02,-4.97 9.26,-3.32 16.12,-7.88 20.64,-13.66 4.52,-5.78 6.8,-12.08 6.8,-18.83 0,-6.85 -2.17,-12.85 -6.52,-18 -4.35,-5.12 -11.55,-9.42 -21.59,-12.95 -6.42,-2.25 -20.64,-5.83 -42.67,-10.7 -22.04,-4.86 -37.45,-9.42 -46.26,-13.71 -11.43,-5.53 -19.91,-12.38 -25.49,-20.52 -5.64,-8.13 -8.43,-17.3 -8.43,-27.37 0,-11.15 3.47,-21.54 10.33,-31.16 6.86,-9.68 16.85,-17 30.07,-22.01 13.17,-5.01 27.84,-7.52 43.96,-7.52 17.75,0 33.43,2.6 46.98,7.88 13.55,5.22 23.99,12.94 31.29,23.18 7.32,10.18 11.21,21.75 11.78,34.64l-30.46 2.15c-1.62,-13.87 -7.14,-24.36 -16.56,-31.41 -9.43,-7.12 -23.38,-10.65 -41.79,-10.65 -19.19,0 -33.2,3.23 -41.95,9.67 -8.77,6.45 -13.17,14.22 -13.17,23.34 0,7.88 3.12,14.38 9.32,19.49 6.13,5.07 22.03,10.34 47.81,15.66 25.78,5.37 43.47,10.03 53.06,14.02 13.89,5.89 24.22,13.3 30.85,22.36 6.64,9.01 9.93,19.39 9.93,31.17 0,11.71 -3.62,22.67 -10.94,33 -7.3,10.34 -17.74,18.37 -31.4,24.11 -13.67,5.73 -29.01,8.6 -46.14,8.6 -21.65,0 -39.78,-2.93 -54.4,-8.71 -14.67,-5.78 -26.1,-14.48 -34.42,-26.15 -8.36,-11.61 -12.71,-24.77 -13.16,-39.45zm308.65 74.37l0 -227.27 166.06 0 0 26.66 -135.54 0 0 69.83 126.87 0 0 26.67 -126.87 0 0 77.45 141 0 0 26.66 -171.51 0zm424.83 0l0 -227.27 94.32 0c16.58,0 29.25,0.74 38.03,2.17 12.28,1.86 22.57,5.4 30.88,10.58 8.31,5.24 15,12.55 20.07,21.9 5.06,9.37 7.56,19.68 7.56,30.96 0,19.25 -6.74,35.6 -20.29,48.94 -13.49,13.39 -37.97,20.04 -73.33,20.04l-64.08 0 0 92.69 -33.15 0zm33.15 -119.35l64.55 0c21.4,0 36.52,-3.6 45.53,-10.84 8.96,-7.24 13.43,-17.4 13.43,-30.57 0,-9.48 -2.61,-17.62 -7.9,-24.4 -5.29,-6.76 -12.27,-11.26 -20.88,-13.43 -5.58,-1.32 -15.88,-2.01 -30.82,-2.01l-63.9 0 0 81.26zm275.36 119.35l78.04 -227.27 29.6 0 82.82 227.27 -30.63 0 -23.54 -68.88 -85.66 0 -22.07 68.88 -28.56 0zm58.53 -93.33l69.34 0 -21.22 -63c-6.39,-19.15 -11.23,-34.97 -14.58,-47.46 -2.79,14.81 -6.54,29.36 -11.23,43.75l-22.31 66.71zm244.91 93.33l0 -227.26 32.28 0 0 227.26 -32.28 0zm144.61 0l0 -227.26 32.88 0 126.86 178.39 0 -178.39 30.73 0 0 227.26 -32.86 0 -126.87 -178.39 0 178.39 -30.73 0zm387.39 0l0 -200.6 -79.28 0 0 -26.66 190.46 0 0 26.66 -79.27 0 0 200.6 -31.92 0zm228.33 0l0 -227.27 166.06 0 0 26.66 -135.54 0 0 69.83 126.87 0 0 26.67 -126.87 0 0 77.45 141 0 0 26.66 -171.51 0zm308.62 0l0 -227.26 95.98 0c19.3,0 33.97,2.06 43.99,6.14 10.03,4.07 18.05,11.26 24.05,21.58 6,10.31 8.97,21.75 8.97,34.23 0,16.13 -4.99,29.73 -14.92,40.79 -9.93,11.05 -25.26,18.04 -46.02,21.05 7.62,3.81 13.36,7.62 17.28,11.32 8.37,8.04 16.29,18.15 23.7,30.26l37.45 61.89 -35.79 0 -28.63 -47.29c-8.31,-13.7 -15.22,-24.12 -20.61,-31.36 -5.45,-7.26 -10.29,-12.28 -14.57,-15.18 -4.23,-2.85 -8.61,-4.87 -13.05,-6.03 -3.23,-0.68 -8.52,-1.06 -15.93,-1.06l-33.16 0 0 100.93 -28.74 0zm28.74 -126.96l61.49 0c13.1,0 23.28,-1.43 30.64,-4.29 7.35,-2.79 12.94,-7.35 16.73,-13.65 3.83,-6.24 5.75,-13.01 5.75,-20.37 0,-10.73 -3.68,-19.62 -11.09,-26.55 -7.41,-6.93 -19.09,-10.36 -35.08,-10.36l-68.44 0 0 75.23zm-3367.73 -284.2l0 -595.38c0,-55.34 0,-110.69 -27.67,-143.84 -27.67,-33.15 -83.01,-44.13 -128.1,-49.62 -45.09,-5.48 -79.92,-5.48 -97.32,-5.48 -17.42,0 -17.42,0 -17.42,0l0 -51.53 873.57 0 -0.26 25.76 -0.26 25.76c0,0 0,0 -17.42,0 -17.4,0 -52.23,0 -97.32,5.48 -45.09,5.49 -100.43,16.47 -128.1,49.62 -13.83,16.58 -20.75,38.7 -24.2,63.6 -3.47,24.89 -3.47,52.57 -3.47,80.24l0 297.69 0 297.69 -332.04 0zm0 594.69l0 595.38c0,55.34 0,110.69 -27.67,143.84 -27.67,33.15 -83.01,44.13 -128.1,49.62 -45.09,5.48 -79.92,5.48 -97.32,5.48 -17.42,0 -17.42,0 -17.42,0l0 51.53 873.57 0 -0.26 -25.76 -0.26 -25.76c0,0 0,0 -17.42,0 -17.4,0 -52.23,0 -97.32,-5.48 -45.09,-5.49 -100.43,-16.47 -128.1,-49.62 -13.83,-16.58 -20.75,-38.7 -24.2,-63.6 -3.47,-24.89 -3.47,-52.57 -3.47,-80.24l0 -297.69 0 -297.69 -332.04 0zm1263.41 0l0 595.38c0,55.34 0,110.69 -27.67,143.84 -27.67,33.15 -83.01,44.13 -128.1,49.62 -45.09,5.48 -79.92,5.48 -97.33,5.48 -17.4,0 -17.4,0 -17.4,0l0 51.53 873.57 0 -0.26 -25.76 -0.26 -25.76c0,0 0,0 -17.42,0 -17.4,0 -52.23,0 -97.32,-5.48 -45.09,-5.49 -100.43,-16.47 -128.1,-49.62 -13.83,-16.58 -20.75,-38.7 -24.22,-63.6 -3.45,-24.89 -3.45,-52.57 -3.45,-80.24l0 -297.69 0 -297.69 -332.04 0zm1126.13 0l0 595.38c0,55.34 0,110.69 -27.67,143.84 -27.67,33.15 -83.01,44.13 -128.1,49.62 -45.09,5.48 -79.92,5.48 -97.33,5.48 -17.4,0 -17.4,0 -17.4,0l0 51.53 873.57 0 -0.26 -25.76 -0.26 -25.76c0,0 0,0 -17.42,0 -17.42,0 -52.23,0 -97.32,-5.48 -45.09,-5.49 -100.43,-16.47 -128.1,-49.62 -13.84,-16.58 -20.75,-38.7 -24.22,-63.6 -3.45,-24.89 -3.45,-52.57 -3.45,-80.24l0 -297.69 0 -297.69 -332.04 0z"></path> </g> </svg> 